<svg viewBox="0 0 400 400" xmlns="http://www.w3.org/2000/svg">
  <defs>
    <!-- Gradient definitions -->
    <radialGradient id="mainGradient" cx="40%" cy="40%" r="80%">
      <stop offset="0%" style="stop-color:#c084fc;stop-opacity:1" />
      <stop offset="25%" style="stop-color:#a855f7;stop-opacity:1" />
      <stop offset="50%" style="stop-color:#6366f1;stop-opacity:1" />
      <stop offset="75%" style="stop-color:#3b82f6;stop-opacity:1" />
      <stop offset="100%" style="stop-color:#06b6d4;stop-opacity:1" />
    </radialGradient>
    
    <radialGradient id="glowGradient" cx="50%" cy="50%" r="70%">
      <stop offset="0%" style="stop-color:#ffffff;stop-opacity:0.3" />
      <stop offset="50%" style="stop-color:#a855f7;stop-opacity:0.1" />
      <stop offset="100%" style="stop-color:#06b6d4;stop-opacity:0.05" />
    </radialGradient>
    
    <linearGradient id="accentGradient" x1="0%" y1="0%" x2="100%" y2="100%">
      <stop offset="0%" style="stop-color:#a855f7;stop-opacity:1" />
      <stop offset="100%" style="stop-color:#06b6d4;stop-opacity:1" />
    </linearGradient>
    
    <linearGradient id="chatGradient" x1="0%" y1="0%" x2="100%" y2="100%">
      <stop offset="0%" style="stop-color:#0ea5e9;stop-opacity:1" />
      <stop offset="100%" style="stop-color:#06b6d4;stop-opacity:1" />
    </linearGradient>
    
    <linearGradient id="elementGradient" x1="0%" y1="0%" x2="100%" y2="100%">
      <stop offset="0%" style="stop-color:#c084fc;stop-opacity:1" />
      <stop offset="50%" style="stop-color:#6366f1;stop-opacity:1" />
      <stop offset="100%" style="stop-color:#06b6d4;stop-opacity:1" />
    </linearGradient>
    
    <filter id="glow" x="-50%" y="-50%" width="200%" height="200%">
      <feGaussianBlur stdDeviation="3" result="coloredBlur"/>
      <feMerge> 
        <feMergeNode in="coloredBlur"/>
        <feMergeNode in="SourceGraphic"/>
      </feMerge>
    </filter>
    
    <filter id="circuitGlow" x="-50%" y="-50%" width="200%" height="200%">
      <feGaussianBlur stdDeviation="1.5" result="coloredBlur"/>
      <feMerge> 
        <feMergeNode in="coloredBlur"/>
        <feMergeNode in="SourceGraphic"/>
      </feMerge>
    </filter>
  </defs>
  
  <!-- Main swirl shape with glow effect -->
  <g filter="url(#glow)">
    <path d="M200 70 C290 70 360 140 360 230 C360 300 310 360 240 370 C170 380 100 330 85 260 C70 190 120 130 190 140 C250 150 290 190 290 240 C290 280 260 310 220 310 C190 310 170 290 170 260 C170 245 182 233 197 233 C207 233 215 241 215 251" 
          fill="none" 
          stroke="url(#mainGradient)" 
          stroke-width="28" 
          stroke-linecap="round"/>
  </g>
  
  <!-- Secondary swirl layer -->
  <path d="M200 85 C275 85 335 145 335 220 C335 280 295 330 235 340 C175 350 115 310 105 250 C95 190 135 150 195 160 C235 170 265 200 265 240 C265 270 245 290 220 290 C205 290 195 280 195 265" 
        fill="none" 
        stroke="url(#mainGradient)" 
        stroke-width="15" 
        stroke-linecap="round" 
        opacity="0.8"/>
        
  <!-- Inner highlight -->
  <path d="M200 100 C260 100 310 150 310 210 C310 260 280 300 235 305 C190 310 145 280 140 235 C135 190 165 160 210 170 C235 175 255 195 255 220" 
        fill="none" 
        stroke="url(#glowGradient)" 
        stroke-width="8" 
        stroke-linecap="round" 
        opacity="0.9"/>
  
  <!-- Enhanced circuit lines with glow -->
  <g stroke="url(#accentGradient)" stroke-width="2.5" fill="none" opacity="0.9" filter="url(#circuitGlow)">
    <!-- Left side circuits with smooth curves -->
    <path d="M120 180 Q140 180 140 160 Q140 160 160 160"/>
    <path d="M130 200 Q150 200 150 220 Q150 220 175 220"/>
    <path d="M110 240 Q130 240 130 260 Q130 260 155 260"/>
    
    <!-- Right side circuits with smooth curves -->
    <path d="M280 160 Q300 160 300 140 Q300 140 325 140"/>
    <path d="M290 190 Q310 190 310 170 Q310 170 335 170"/>
    <path d="M270 240 Q290 240 290 220 Q290 220 315 220"/>
    
    <!-- Top circuits -->
    <path d="M180 100 Q180 120 200 120 Q200 120 200 140"/>
    <path d="M220 90 Q220 110 240 110 Q240 110 240 135"/>
    
    <!-- Bottom circuits -->
    <path d="M160 320 Q160 300 180 300 Q180 300 180 280"/>
    <path d="M220 330 Q220 310 240 310 Q240 310 240 290"/>
  </g>
  
  <!-- Enhanced circuit nodes with glow -->
  <g fill="url(#elementGradient)" filter="url(#circuitGlow)">
    <circle cx="160" cy="160" r="5" opacity="0.9"/>
    <circle cx="175" cy="220" r="4" opacity="0.8"/>
    <circle cx="155" cy="260" r="4" opacity="0.8"/>
    <circle cx="325" cy="140" r="5" opacity="0.9"/>
    <circle cx="335" cy="170" r="4" opacity="0.8"/>
    <circle cx="315" cy="220" r="4" opacity="0.8"/>
    <circle cx="200" cy="140" r="4" opacity="0.8"/>
    <circle cx="240" cy="135" r="4" opacity="0.8"/>
    <circle cx="180" cy="280" r="4" opacity="0.8"/>
    <circle cx="240" cy="290" r="5" opacity="0.9"/>
  </g>
  
  <!-- Enhanced floating elements -->
  <!-- Hexagons with gradient and glow -->
  <polygon points="200,45 218,54 218,72 200,81 182,72 182,54" fill="url(#elementGradient)" opacity="0.9" filter="url(#circuitGlow)"/>
  <polygon points="355,195 368,202 368,218 355,225 342,218 342,202" fill="url(#elementGradient)" opacity="0.8" filter="url(#circuitGlow)"/>
  <polygon points="175,355 190,362 190,378 175,385 160,378 160,362" fill="url(#elementGradient)" opacity="0.8" filter="url(#circuitGlow)"/>
  
  <!-- Enhanced squares -->
  <rect x="75" y="145" width="12" height="12" rx="2" fill="url(#elementGradient)" opacity="0.9" filter="url(#circuitGlow)"/>
  <rect x="325" y="255" width="10" height="10" rx="2" fill="url(#elementGradient)" opacity="0.8" filter="url(#circuitGlow)"/>
  <rect x="95" y="315" width="11" height="11" rx="2" fill="url(#elementGradient)" opacity="0.9" filter="url(#circuitGlow)"/>
  <rect x="350" y="115" width="8" height="8" rx="1" fill="url(#elementGradient)" opacity="0.7" filter="url(#circuitGlow)"/>
  
  <!-- Enhanced circles/dots with varying sizes -->
  <circle cx="85" cy="115" r="5" fill="url(#elementGradient)" opacity="0.8" filter="url(#circuitGlow)"/>
  <circle cx="345" cy="285" r="6" fill="url(#elementGradient)" opacity="0.9" filter="url(#circuitGlow)"/>
  <circle cx="115" cy="365" r="4" fill="url(#elementGradient)" opacity="0.7" filter="url(#circuitGlow)"/>
  <circle cx="365" cy="75" r="5.5" fill="url(#elementGradient)" opacity="0.8" filter="url(#circuitGlow)"/>
  <circle cx="315" cy="325" r="5" fill="url(#elementGradient)" opacity="0.8" filter="url(#circuitGlow)"/>
  
  <!-- Enhanced chat bubble with premium look -->
  <g transform="translate(330,110)" filter="url(#circuitGlow)">
    <ellipse cx="0" cy="0" rx="30" ry="22" fill="url(#chatGradient)" opacity="0.95"/>
    <path d="M-10 15 Q-15 25 -18 28 Q-15 25 -8 20 Z" fill="url(#chatGradient)" opacity="0.95"/>
    <!-- Three dots in chat with better spacing -->
    <circle cx="-12" cy="-3" r="3" fill="white" opacity="0.9"/>
    <circle cx="0" cy="-3" r="3" fill="white" opacity="0.9"/>
    <circle cx="12" cy="-3" r="3" fill="white" opacity="0.9"/>
    <!-- Subtle highlight -->
    <ellipse cx="-5" cy="-8" rx="8" ry="4" fill="white" opacity="0.2"/>
  </g>
  
  <!-- Additional floating particles for atmosphere -->
  <g opacity="0.6" fill="url(#elementGradient)">
    <circle cx="140" cy="90" r="2" filter="url(#circuitGlow)"/>
    <circle cx="280" cy="320" r="1.5" filter="url(#circuitGlow)"/>
    <circle cx="90" cy="270" r="2.5" filter="url(#circuitGlow)"/>
    <circle cx="340" cy="160" r="2" filter="url(#circuitGlow)"/>
    <circle cx="160" cy="340" r="1.8" filter="url(#circuitGlow)"/>
  </g>
  
  <!-- Additional connecting elements with smooth curves -->
  <g opacity="0.7" stroke="url(#elementGradient)" stroke-width="2" fill="none" filter="url(#circuitGlow)">
    <path d="M145 95 Q160 102 175 115"/>
    <path d="M285 305 Q300 295 315 285"/>
    <path d="M95 285 Q110 295 125 310"/>
    <path d="M250 80 Q265 85 280 95"/>
    <path d="M120 330 Q135 340 150 345"/>
  </g>
</svg>